<svg width="756" height="270" viewBox="0 0 756 270" fill="none" xmlns="http://www.w3.org/2000/svg">
<rect width="756" height="270" fill="black"/>
<path fill-rule="evenodd" clip-rule="evenodd" d="M204 135.021C204 123.566 189.654 112.716 167.649 105.975C172.731 83.5564 170.464 65.726 160.525 60.0124C158.23 58.6755 155.555 58.0422 152.627 58.0422V65.909C154.246 65.909 155.555 66.2327 156.653 66.8237C161.454 69.5679 163.524 80.0382 161.904 93.506C161.51 96.8131 160.877 100.303 160.102 103.864C153.19 102.175 145.643 100.866 137.717 100.022C132.959 93.506 128.017 87.5813 123.047 82.4025C134.535 71.707 145.32 65.8668 152.655 65.8668V58C142.954 58 130.269 64.9098 117.43 76.8999C104.59 64.9802 91.9048 58.1407 82.2045 58.1407V66.0075C89.4973 66.0075 100.324 71.8196 111.826 82.4306C106.885 87.6094 101.957 93.4919 97.2688 100.022C89.3002 100.866 81.754 102.175 74.8413 103.892C74.0247 100.374 73.4334 96.9539 73.0111 93.6749C71.3498 80.2071 73.4053 69.7368 78.1639 66.9504C79.2198 66.3171 80.5995 66.0356 82.2186 66.0356V58.1829C79.262 58.1829 76.573 58.8162 74.25 60.1532C64.3385 65.8668 62.1141 83.669 67.2388 106.017C45.2759 112.772 31 123.594 31 135.021C31 146.476 45.3463 157.327 67.3514 164.068C62.269 186.486 64.5356 204.316 74.4753 210.03C76.7701 211.367 79.4451 212 82.4157 212C92.116 212 104.801 205.09 117.641 193.1C130.481 205.02 143.166 211.859 152.866 211.859C155.822 211.859 158.511 211.226 160.834 209.889C170.746 204.175 172.97 186.373 167.846 164.025C189.724 157.299 204 146.434 204 135.021ZM133.578 135.021C133.578 126.127 126.37 118.908 117.458 118.908C108.56 118.908 101.338 126.113 101.338 135.021C101.338 143.929 108.546 151.135 117.458 151.135C126.37 151.121 133.578 143.915 133.578 135.021ZM158.089 111.505C156.78 116.051 155.161 120.737 153.33 125.423C151.88 122.609 150.374 119.78 148.713 116.966C147.094 114.151 145.362 111.393 143.63 108.719C148.642 109.465 153.471 110.379 158.089 111.505ZM141.941 149.052C139.195 153.808 136.366 158.326 133.437 162.52C128.186 162.984 122.864 163.223 117.5 163.223C112.178 163.223 106.856 162.97 101.633 162.548C98.7048 158.354 95.8468 153.879 93.1015 149.15C90.4265 144.534 87.9909 139.848 85.7664 135.12C87.9487 130.391 90.4265 125.677 93.0592 121.061C95.8046 116.304 98.6344 111.787 101.563 107.593C106.814 107.129 112.136 106.889 117.5 106.889C122.822 106.889 128.144 107.143 133.367 107.565C136.295 111.759 139.153 116.234 141.899 120.962C144.573 125.578 147.009 130.264 149.234 134.993C147.009 139.707 144.588 144.422 141.941 149.052ZM153.33 144.464C155.231 149.193 156.85 153.907 158.202 158.495C153.584 159.621 148.713 160.578 143.672 161.309C145.404 158.593 147.122 155.807 148.755 152.95C150.36 150.135 151.88 147.279 153.33 144.464ZM117.57 182.067C114.29 178.689 111.01 174.918 107.772 170.794C110.939 170.935 114.191 171.048 117.472 171.048C120.78 171.048 124.061 170.977 127.271 170.794C124.089 174.918 120.809 178.689 117.57 182.067ZM91.3416 161.309C86.3296 160.563 81.5006 159.649 76.8827 158.523C78.1921 153.977 79.8111 149.291 81.6414 144.605C83.0915 147.419 84.5979 150.248 86.2592 153.063C87.9205 155.891 89.6099 158.635 91.3416 161.309ZM117.387 87.9613C120.668 91.3388 123.948 95.1103 127.186 99.2337C124.018 99.0929 120.766 98.9804 117.486 98.9804C114.177 98.9804 110.897 99.0507 107.687 99.2337C110.869 95.1103 114.149 91.3388 117.387 87.9613ZM91.2994 108.719C89.5677 111.435 87.8501 114.221 86.217 117.078C84.5979 119.893 83.0774 122.721 81.6273 125.536C79.7266 120.807 78.1076 116.093 76.756 111.505C81.3879 110.408 86.2592 109.465 91.2994 108.719ZM59.3828 152.852C46.8949 147.532 38.8278 140.552 38.8278 135.021C38.8278 129.49 46.909 122.468 59.3828 117.191C62.4098 115.882 65.7323 114.728 69.1535 113.63C71.1668 120.54 73.8136 127.731 77.0939 135.091C73.8558 142.423 71.2371 149.573 69.2661 156.454C65.7746 155.356 62.452 154.16 59.3828 152.852ZM78.361 203.219C73.5601 200.474 71.4906 190.004 73.1096 176.536C73.5038 173.229 74.1374 169.739 74.9117 166.179C81.8244 167.867 89.3706 169.176 97.297 170.02C102.056 176.536 106.997 182.461 111.967 187.64C100.465 198.321 89.6803 204.175 82.3453 204.175C80.7544 204.133 79.4169 203.824 78.361 203.219ZM162.003 176.367C163.664 189.835 161.609 200.305 156.85 203.092C155.794 203.725 154.415 204.007 152.796 204.007C145.503 204.007 134.676 198.194 123.174 187.583C128.115 182.405 133.043 176.522 137.731 169.992C145.7 169.148 153.246 167.839 160.159 166.108C160.975 169.669 161.609 173.088 162.003 176.367ZM175.575 152.852C172.548 154.16 169.225 155.314 165.804 156.412C163.791 149.502 161.144 142.311 157.864 134.951C161.102 127.619 163.721 120.47 165.692 113.588C169.183 114.686 172.492 115.882 175.603 117.177C188.091 122.496 196.158 129.476 196.158 135.007C196.13 140.552 188.063 147.56 175.575 152.852Z" fill="#00D8FF"/>
<path d="M249.52 77.88C256.613 77.88 261.84 79.24 265.2 81.96C268.613 84.6267 270.32 88.68 270.32 94.12C270.32 97.16 269.76 99.6933 268.64 101.72C267.52 103.747 266.08 105.373 264.32 106.6C262.613 107.773 260.8 108.707 258.88 109.4L274.56 135H266.16L252.32 111.4H240.96V135H233.76V77.88H249.52ZM249.12 84.12H240.96V105.32H249.52C254.16 105.32 257.547 104.413 259.68 102.6C261.813 100.733 262.88 98.0133 262.88 94.44C262.88 90.7067 261.76 88.0667 259.52 86.52C257.28 84.92 253.813 84.12 249.12 84.12ZM299.126 91.32C302.806 91.32 305.952 92.12 308.566 93.72C311.232 95.32 313.259 97.5867 314.646 100.52C316.086 103.4 316.806 106.787 316.806 110.68V114.92H287.446C287.552 119.773 288.779 123.48 291.126 126.04C293.526 128.547 296.859 129.8 301.126 129.8C303.846 129.8 306.246 129.56 308.326 129.08C310.459 128.547 312.646 127.8 314.886 126.84V133C312.699 133.96 310.539 134.653 308.406 135.08C306.272 135.56 303.739 135.8 300.806 135.8C296.752 135.8 293.152 134.973 290.006 133.32C286.912 131.667 284.486 129.213 282.726 125.96C281.019 122.653 280.166 118.627 280.166 113.88C280.166 109.187 280.939 105.16 282.486 101.8C284.086 98.44 286.299 95.8533 289.126 94.04C292.006 92.2267 295.339 91.32 299.126 91.32ZM299.046 97.08C295.686 97.08 293.019 98.1733 291.046 100.36C289.126 102.493 287.979 105.48 287.606 109.32H309.446C309.392 105.693 308.539 102.76 306.886 100.52C305.232 98.2267 302.619 97.08 299.046 97.08ZM343.962 91.4C349.189 91.4 353.055 92.5467 355.562 94.84C358.069 97.1333 359.322 100.787 359.322 105.8V135H354.202L352.842 128.92H352.522C350.655 131.267 348.682 133 346.602 134.12C344.575 135.24 341.749 135.8 338.122 135.8C334.229 135.8 331.002 134.787 328.442 132.76C325.882 130.68 324.602 127.453 324.602 123.08C324.602 118.813 326.282 115.533 329.642 113.24C333.002 110.893 338.175 109.613 345.162 109.4L352.442 109.16V106.6C352.442 103.027 351.669 100.547 350.122 99.16C348.575 97.7733 346.389 97.08 343.562 97.08C341.322 97.08 339.189 97.4267 337.162 98.12C335.135 98.76 333.242 99.5067 331.482 100.36L329.322 95.08C331.189 94.0667 333.402 93.2133 335.962 92.52C338.522 91.7733 341.189 91.4 343.962 91.4ZM346.042 114.28C340.709 114.493 337.002 115.347 334.922 116.84C332.895 118.333 331.882 120.44 331.882 123.16C331.882 125.56 332.602 127.32 334.042 128.44C335.535 129.56 337.429 130.12 339.722 130.12C343.349 130.12 346.362 129.133 348.762 127.16C351.162 125.133 352.362 122.04 352.362 117.88V114.04L346.042 114.28ZM389.766 135.8C385.979 135.8 382.592 135.027 379.606 133.48C376.672 131.933 374.352 129.533 372.646 126.28C370.992 123.027 370.166 118.867 370.166 113.8C370.166 108.52 371.046 104.227 372.806 100.92C374.566 97.6133 376.939 95.1867 379.926 93.64C382.966 92.0933 386.406 91.32 390.246 91.32C392.432 91.32 394.539 91.56 396.566 92.04C398.592 92.4667 400.246 93 401.526 93.64L399.366 99.48C398.086 99 396.592 98.5467 394.886 98.12C393.179 97.6933 391.579 97.48 390.086 97.48C381.659 97.48 377.446 102.893 377.446 113.72C377.446 118.893 378.459 122.867 380.486 125.64C382.566 128.36 385.632 129.72 389.686 129.72C392.032 129.72 394.086 129.48 395.846 129C397.659 128.52 399.312 127.933 400.806 127.24V133.48C399.366 134.227 397.766 134.787 396.006 135.16C394.299 135.587 392.219 135.8 389.766 135.8ZM425.323 130.04C426.39 130.04 427.483 129.96 428.603 129.8C429.723 129.587 430.63 129.373 431.323 129.16V134.52C430.576 134.893 429.51 135.187 428.123 135.4C426.736 135.667 425.403 135.8 424.123 135.8C421.883 135.8 419.803 135.427 417.883 134.68C416.016 133.88 414.496 132.52 413.323 130.6C412.15 128.68 411.563 125.987 411.563 122.52V97.56H405.483V94.2L411.643 91.4L414.443 82.28H418.603V92.12H431.003V97.56H418.603V122.36C418.603 124.973 419.216 126.92 420.443 128.2C421.723 129.427 423.35 130.04 425.323 130.04ZM508.103 135H499.703L469.143 87.56H468.823C468.929 89.4267 469.063 91.7467 469.223 94.52C469.383 97.2933 469.463 100.147 469.463 103.08V135H462.823V77.88H471.143L501.623 125.16H501.943C501.889 124.307 501.809 123.027 501.703 121.32C501.649 119.613 501.569 117.747 501.463 115.72C501.409 113.693 501.383 111.827 501.383 110.12V77.88H508.103V135ZM538.884 91.4C544.11 91.4 547.977 92.5467 550.484 94.84C552.99 97.1333 554.244 100.787 554.244 105.8V135H549.124L547.764 128.92H547.444C545.577 131.267 543.604 133 541.524 134.12C539.497 135.24 536.67 135.8 533.044 135.8C529.15 135.8 525.924 134.787 523.364 132.76C520.804 130.68 519.524 127.453 519.524 123.08C519.524 118.813 521.204 115.533 524.564 113.24C527.924 110.893 533.097 109.613 540.084 109.4L547.364 109.16V106.6C547.364 103.027 546.59 100.547 545.044 99.16C543.497 97.7733 541.31 97.08 538.484 97.08C536.244 97.08 534.11 97.4267 532.084 98.12C530.057 98.76 528.164 99.5067 526.404 100.36L524.244 95.08C526.11 94.0667 528.324 93.2133 530.884 92.52C533.444 91.7733 536.11 91.4 538.884 91.4ZM540.964 114.28C535.63 114.493 531.924 115.347 529.844 116.84C527.817 118.333 526.804 120.44 526.804 123.16C526.804 125.56 527.524 127.32 528.964 128.44C530.457 129.56 532.35 130.12 534.644 130.12C538.27 130.12 541.284 129.133 543.684 127.16C546.084 125.133 547.284 122.04 547.284 117.88V114.04L540.964 114.28ZM581.807 130.04C582.874 130.04 583.968 129.96 585.088 129.8C586.208 129.587 587.114 129.373 587.808 129.16V134.52C587.061 134.893 585.994 135.187 584.608 135.4C583.221 135.667 581.888 135.8 580.608 135.8C578.368 135.8 576.288 135.427 574.368 134.68C572.501 133.88 570.981 132.52 569.808 130.6C568.634 128.68 568.048 125.987 568.048 122.52V97.56H561.968V94.2L568.128 91.4L570.928 82.28H575.088V92.12H587.488V97.56H575.088V122.36C575.088 124.973 575.701 126.92 576.928 128.2C578.208 129.427 579.834 130.04 581.807 130.04ZM599.994 76.04C601.06 76.04 601.994 76.4133 602.794 77.16C603.647 77.8533 604.074 78.9733 604.074 80.52C604.074 82.0133 603.647 83.1333 602.794 83.88C601.994 84.6267 601.06 85 599.994 85C598.82 85 597.834 84.6267 597.034 83.88C596.234 83.1333 595.834 82.0133 595.834 80.52C595.834 78.9733 596.234 77.8533 597.034 77.16C597.834 76.4133 598.82 76.04 599.994 76.04ZM603.434 92.12V135H596.394V92.12H603.434ZM626.459 135L610.219 92.12H617.739L626.859 117.4C627.285 118.573 627.739 119.88 628.219 121.32C628.699 122.76 629.125 124.147 629.499 125.48C629.872 126.76 630.139 127.853 630.299 128.76H630.619C630.832 127.853 631.125 126.733 631.499 125.4C631.925 124.067 632.379 122.68 632.859 121.24C633.392 119.8 633.845 118.52 634.219 117.4L643.339 92.12H650.859L634.539 135H626.459ZM674.204 91.32C677.884 91.32 681.03 92.12 683.644 93.72C686.31 95.32 688.337 97.5867 689.724 100.52C691.164 103.4 691.884 106.787 691.884 110.68V114.92H662.524C662.63 119.773 663.857 123.48 666.204 126.04C668.604 128.547 671.937 129.8 676.204 129.8C678.924 129.8 681.324 129.56 683.404 129.08C685.537 128.547 687.724 127.8 689.964 126.84V133C687.777 133.96 685.617 134.653 683.484 135.08C681.35 135.56 678.817 135.8 675.884 135.8C671.83 135.8 668.23 134.973 665.084 133.32C661.99 131.667 659.564 129.213 657.804 125.96C656.097 122.653 655.244 118.627 655.244 113.88C655.244 109.187 656.017 105.16 657.564 101.8C659.164 98.44 661.377 95.8533 664.204 94.04C667.084 92.2267 670.417 91.32 674.204 91.32ZM674.124 97.08C670.764 97.08 668.097 98.1733 666.124 100.36C664.204 102.493 663.057 105.48 662.684 109.32H684.524C684.47 105.693 683.617 102.76 681.964 100.52C680.31 98.2267 677.697 97.08 674.124 97.08Z" fill="white"/>
<path d="M243.628 186H240.388V163.14H232.36V160.296H251.62V163.14H243.628V186ZM269.309 176.316C269.309 179.508 268.493 181.98 266.861 183.732C265.253 185.484 263.069 186.36 260.309 186.36C258.605 186.36 257.081 185.976 255.737 185.208C254.417 184.416 253.373 183.276 252.605 181.788C251.837 180.276 251.453 178.452 251.453 176.316C251.453 173.124 252.257 170.664 253.865 168.936C255.473 167.208 257.657 166.344 260.417 166.344C262.169 166.344 263.705 166.74 265.025 167.532C266.369 168.3 267.413 169.428 268.157 170.916C268.925 172.38 269.309 174.18 269.309 176.316ZM254.729 176.316C254.729 178.596 255.173 180.408 256.061 181.752C256.973 183.072 258.413 183.732 260.381 183.732C262.325 183.732 263.753 183.072 264.665 181.752C265.577 180.408 266.033 178.596 266.033 176.316C266.033 174.036 265.577 172.248 264.665 170.952C263.753 169.656 262.313 169.008 260.345 169.008C258.377 169.008 256.949 169.656 256.061 170.952C255.173 172.248 254.729 174.036 254.729 176.316ZM281.17 186.36C278.77 186.36 276.85 185.532 275.41 183.876C273.97 182.196 273.25 179.7 273.25 176.388C273.25 173.076 273.97 170.58 275.41 168.9C276.874 167.196 278.806 166.344 281.206 166.344C282.694 166.344 283.906 166.62 284.842 167.172C285.802 167.724 286.582 168.396 287.182 169.188H287.398C287.374 168.876 287.326 168.42 287.254 167.82C287.206 167.196 287.182 166.704 287.182 166.344V158.64H290.35V186H287.794L287.326 183.408H287.182C286.606 184.224 285.838 184.92 284.878 185.496C283.918 186.072 282.682 186.36 281.17 186.36ZM281.674 183.732C283.714 183.732 285.142 183.18 285.958 182.076C286.798 180.948 287.218 179.256 287.218 177V176.424C287.218 174.024 286.822 172.188 286.03 170.916C285.238 169.62 283.774 168.972 281.638 168.972C279.934 168.972 278.65 169.656 277.786 171.024C276.946 172.368 276.526 174.18 276.526 176.46C276.526 178.764 276.946 180.552 277.786 181.824C278.65 183.096 279.946 183.732 281.674 183.732ZM313.254 176.316C313.254 179.508 312.438 181.98 310.806 183.732C309.198 185.484 307.014 186.36 304.254 186.36C302.55 186.36 301.026 185.976 299.682 185.208C298.362 184.416 297.318 183.276 296.55 181.788C295.782 180.276 295.398 178.452 295.398 176.316C295.398 173.124 296.202 170.664 297.81 168.936C299.418 167.208 301.602 166.344 304.362 166.344C306.114 166.344 307.65 166.74 308.97 167.532C310.314 168.3 311.358 169.428 312.102 170.916C312.87 172.38 313.254 174.18 313.254 176.316ZM298.674 176.316C298.674 178.596 299.118 180.408 300.006 181.752C300.918 183.072 302.358 183.732 304.326 183.732C306.27 183.732 307.698 183.072 308.61 181.752C309.522 180.408 309.978 178.596 309.978 176.316C309.978 174.036 309.522 172.248 308.61 170.952C307.698 169.656 306.258 169.008 304.29 169.008C302.322 169.008 300.894 169.656 300.006 170.952C299.118 172.248 298.674 174.036 298.674 176.316ZM328.586 186V160.296H331.826V183.12H343.058V186H328.586ZM348.653 159.468C349.133 159.468 349.553 159.636 349.913 159.972C350.297 160.284 350.489 160.788 350.489 161.484C350.489 162.156 350.297 162.66 349.913 162.996C349.553 163.332 349.133 163.5 348.653 163.5C348.125 163.5 347.681 163.332 347.321 162.996C346.961 162.66 346.781 162.156 346.781 161.484C346.781 160.788 346.961 160.284 347.321 159.972C347.681 159.636 348.125 159.468 348.653 159.468ZM350.201 166.704V186H347.033V166.704H350.201ZM368.878 180.672C368.878 182.544 368.182 183.96 366.79 184.92C365.398 185.88 363.526 186.36 361.174 186.36C359.83 186.36 358.666 186.252 357.682 186.036C356.722 185.82 355.87 185.52 355.126 185.136V182.256C355.894 182.64 356.818 183 357.898 183.336C359.002 183.648 360.118 183.804 361.246 183.804C362.854 183.804 364.018 183.552 364.738 183.048C365.458 182.52 365.818 181.824 365.818 180.96C365.818 180.48 365.686 180.048 365.422 179.664C365.158 179.28 364.678 178.896 363.982 178.512C363.31 178.128 362.338 177.696 361.066 177.216C359.818 176.736 358.75 176.256 357.862 175.776C356.974 175.296 356.29 174.72 355.81 174.048C355.33 173.376 355.09 172.512 355.09 171.456C355.09 169.824 355.75 168.564 357.07 167.676C358.414 166.788 360.166 166.344 362.326 166.344C363.502 166.344 364.594 166.464 365.602 166.704C366.634 166.92 367.594 167.232 368.482 167.64L367.402 170.16C366.586 169.824 365.734 169.536 364.846 169.296C363.958 169.056 363.046 168.936 362.11 168.936C360.814 168.936 359.818 169.152 359.122 169.584C358.45 169.992 358.114 170.556 358.114 171.276C358.114 171.804 358.27 172.26 358.582 172.644C358.894 173.004 359.41 173.364 360.13 173.724C360.874 174.06 361.858 174.468 363.082 174.948C364.306 175.404 365.35 175.872 366.214 176.352C367.078 176.832 367.738 177.42 368.194 178.116C368.65 178.788 368.878 179.64 368.878 180.672ZM379.984 183.768C380.464 183.768 380.956 183.732 381.46 183.66C381.964 183.564 382.372 183.468 382.684 183.372V185.784C382.348 185.952 381.868 186.084 381.244 186.18C380.62 186.3 380.02 186.36 379.444 186.36C378.436 186.36 377.5 186.192 376.636 185.856C375.796 185.496 375.112 184.884 374.584 184.02C374.056 183.156 373.792 181.944 373.792 180.384V169.152H371.056V167.64L373.828 166.38L375.088 162.276H376.96V166.704H382.54V169.152H376.96V180.312C376.96 181.488 377.236 182.364 377.788 182.94C378.364 183.492 379.096 183.768 379.984 183.768ZM408.199 186L399.739 163.464H399.595C399.667 164.208 399.727 165.216 399.775 166.488C399.823 167.736 399.847 169.044 399.847 170.412V186H396.859V160.296H401.647L409.567 181.356H409.711L417.775 160.296H422.527V186H419.323V170.196C419.323 168.948 419.347 167.712 419.395 166.488C419.467 165.264 419.527 164.268 419.575 163.5H419.431L410.863 186H408.199ZM445.863 176.316C445.863 179.508 445.047 181.98 443.415 183.732C441.807 185.484 439.623 186.36 436.863 186.36C435.159 186.36 433.635 185.976 432.291 185.208C430.971 184.416 429.927 183.276 429.159 181.788C428.391 180.276 428.007 178.452 428.007 176.316C428.007 173.124 428.811 170.664 430.419 168.936C432.027 167.208 434.211 166.344 436.971 166.344C438.723 166.344 440.259 166.74 441.579 167.532C442.923 168.3 443.967 169.428 444.711 170.916C445.479 172.38 445.863 174.18 445.863 176.316ZM431.283 176.316C431.283 178.596 431.727 180.408 432.615 181.752C433.527 183.072 434.967 183.732 436.935 183.732C438.879 183.732 440.307 183.072 441.219 181.752C442.131 180.408 442.587 178.596 442.587 176.316C442.587 174.036 442.131 172.248 441.219 170.952C440.307 169.656 438.867 169.008 436.899 169.008C434.931 169.008 433.503 169.656 432.615 170.952C431.727 172.248 431.283 174.036 431.283 176.316ZM454.052 165.3C454.052 166.116 454.028 166.884 453.98 167.604C453.956 168.3 453.92 168.852 453.872 169.26H454.052C454.604 168.444 455.36 167.76 456.32 167.208C457.28 166.656 458.516 166.38 460.028 166.38C462.428 166.38 464.348 167.22 465.788 168.9C467.252 170.556 467.984 173.04 467.984 176.352C467.984 179.664 467.252 182.16 465.788 183.84C464.324 185.52 462.404 186.36 460.028 186.36C458.516 186.36 457.28 186.084 456.32 185.532C455.36 184.98 454.604 184.32 454.052 183.552H453.8L453.152 186H450.884V158.64H454.052V165.3ZM459.488 169.008C457.448 169.008 456.032 169.596 455.24 170.772C454.448 171.948 454.052 173.772 454.052 176.244V176.388C454.052 178.764 454.436 180.588 455.204 181.86C455.996 183.108 457.448 183.732 459.56 183.732C461.288 183.732 462.572 183.096 463.412 181.824C464.276 180.552 464.708 178.716 464.708 176.316C464.708 171.444 462.968 169.008 459.488 169.008ZM474.653 159.468C475.133 159.468 475.553 159.636 475.913 159.972C476.297 160.284 476.489 160.788 476.489 161.484C476.489 162.156 476.297 162.66 475.913 162.996C475.553 163.332 475.133 163.5 474.653 163.5C474.125 163.5 473.681 163.332 473.321 162.996C472.961 162.66 472.781 162.156 472.781 161.484C472.781 160.788 472.961 160.284 473.321 159.972C473.681 159.636 474.125 159.468 474.653 159.468ZM476.201 166.704V186H473.033V166.704H476.201ZM485.482 186H482.314V158.64H485.482V186ZM499.047 166.344C500.703 166.344 502.119 166.704 503.295 167.424C504.495 168.144 505.407 169.164 506.031 170.484C506.679 171.78 507.003 173.304 507.003 175.056V176.964H493.791C493.839 179.148 494.391 180.816 495.447 181.968C496.527 183.096 498.027 183.66 499.947 183.66C501.171 183.66 502.251 183.552 503.187 183.336C504.147 183.096 505.131 182.76 506.139 182.328V185.1C505.155 185.532 504.183 185.844 503.223 186.036C502.263 186.252 501.123 186.36 499.803 186.36C497.979 186.36 496.359 185.988 494.943 185.244C493.551 184.5 492.459 183.396 491.667 181.932C490.899 180.444 490.515 178.632 490.515 176.496C490.515 174.384 490.863 172.572 491.559 171.06C492.279 169.548 493.275 168.384 494.547 167.568C495.843 166.752 497.343 166.344 499.047 166.344ZM499.011 168.936C497.499 168.936 496.299 169.428 495.411 170.412C494.547 171.372 494.031 172.716 493.863 174.444H503.691C503.667 172.812 503.283 171.492 502.539 170.484C501.795 169.452 500.619 168.936 499.011 168.936ZM538.354 186L535.258 178.044H525.07L522.01 186H518.734L528.778 160.188H531.694L541.702 186H538.354ZM531.406 167.388C531.334 167.196 531.214 166.848 531.046 166.344C530.878 165.84 530.71 165.324 530.542 164.796C530.398 164.244 530.278 163.824 530.182 163.536C530.014 164.28 529.822 165.012 529.606 165.732C529.39 166.428 529.21 166.98 529.066 167.388L526.15 175.164H534.286L531.406 167.388ZM553.967 166.344C556.343 166.344 558.251 167.172 559.691 168.828C561.155 170.484 561.887 172.98 561.887 176.316C561.887 179.604 561.155 182.1 559.691 183.804C558.251 185.508 556.331 186.36 553.931 186.36C552.443 186.36 551.207 186.084 550.223 185.532C549.263 184.956 548.507 184.296 547.955 183.552H547.739C547.787 183.96 547.835 184.476 547.883 185.1C547.931 185.724 547.955 186.264 547.955 186.72V194.64H544.787V166.704H547.379L547.811 169.332H547.955C548.531 168.492 549.287 167.784 550.223 167.208C551.159 166.632 552.407 166.344 553.967 166.344ZM553.391 169.008C551.423 169.008 550.031 169.56 549.215 170.664C548.423 171.768 548.003 173.448 547.955 175.704V176.316C547.955 178.692 548.339 180.528 549.107 181.824C549.899 183.096 551.351 183.732 553.463 183.732C554.639 183.732 555.599 183.408 556.343 182.76C557.111 182.112 557.675 181.236 558.035 180.132C558.419 179.004 558.611 177.72 558.611 176.28C558.611 174.072 558.179 172.308 557.315 170.988C556.475 169.668 555.167 169.008 553.391 169.008ZM576.115 166.344C578.491 166.344 580.399 167.172 581.839 168.828C583.303 170.484 584.035 172.98 584.035 176.316C584.035 179.604 583.303 182.1 581.839 183.804C580.399 185.508 578.479 186.36 576.079 186.36C574.591 186.36 573.355 186.084 572.371 185.532C571.411 184.956 570.655 184.296 570.103 183.552H569.887C569.935 183.96 569.983 184.476 570.031 185.1C570.079 185.724 570.103 186.264 570.103 186.72V194.64H566.935V166.704H569.527L569.959 169.332H570.103C570.679 168.492 571.435 167.784 572.371 167.208C573.307 166.632 574.555 166.344 576.115 166.344ZM575.539 169.008C573.571 169.008 572.179 169.56 571.363 170.664C570.571 171.768 570.151 173.448 570.103 175.704V176.316C570.103 178.692 570.487 180.528 571.255 181.824C572.047 183.096 573.499 183.732 575.611 183.732C576.787 183.732 577.747 183.408 578.491 182.76C579.259 182.112 579.823 181.236 580.183 180.132C580.567 179.004 580.759 177.72 580.759 176.28C580.759 174.072 580.327 172.308 579.463 170.988C578.623 169.668 577.315 169.008 575.539 169.008ZM592.251 186H589.083V158.64H592.251V186ZM599.985 159.468C600.465 159.468 600.885 159.636 601.245 159.972C601.629 160.284 601.821 160.788 601.821 161.484C601.821 162.156 601.629 162.66 601.245 162.996C600.885 163.332 600.465 163.5 599.985 163.5C599.457 163.5 599.013 163.332 598.653 162.996C598.293 162.66 598.113 162.156 598.113 161.484C598.113 160.788 598.293 160.284 598.653 159.972C599.013 159.636 599.457 159.468 599.985 159.468ZM601.533 166.704V186H598.365V166.704H601.533ZM615.386 186.36C613.682 186.36 612.158 186.012 610.814 185.316C609.494 184.62 608.45 183.54 607.682 182.076C606.938 180.612 606.566 178.74 606.566 176.46C606.566 174.084 606.962 172.152 607.754 170.664C608.546 169.176 609.614 168.084 610.958 167.388C612.326 166.692 613.874 166.344 615.602 166.344C616.586 166.344 617.534 166.452 618.446 166.668C619.358 166.86 620.102 167.1 620.678 167.388L619.706 170.016C619.13 169.8 618.458 169.596 617.69 169.404C616.922 169.212 616.202 169.116 615.53 169.116C611.738 169.116 609.842 171.552 609.842 176.424C609.842 178.752 610.298 180.54 611.21 181.788C612.146 183.012 613.526 183.624 615.35 183.624C616.406 183.624 617.33 183.516 618.122 183.3C618.938 183.084 619.682 182.82 620.354 182.508V185.316C619.706 185.652 618.986 185.904 618.194 186.072C617.426 186.264 616.49 186.36 615.386 186.36ZM632.251 166.38C634.603 166.38 636.343 166.896 637.471 167.928C638.599 168.96 639.163 170.604 639.163 172.86V186H636.859L636.247 183.264H636.103C635.263 184.32 634.375 185.1 633.439 185.604C632.527 186.108 631.255 186.36 629.623 186.36C627.871 186.36 626.419 185.904 625.267 184.992C624.115 184.056 623.539 182.604 623.539 180.636C623.539 178.716 624.295 177.24 625.807 176.208C627.319 175.152 629.647 174.576 632.791 174.48L636.067 174.372V173.22C636.067 171.612 635.719 170.496 635.023 169.872C634.327 169.248 633.343 168.936 632.071 168.936C631.063 168.936 630.103 169.092 629.191 169.404C628.279 169.692 627.427 170.028 626.635 170.412L625.663 168.036C626.503 167.58 627.499 167.196 628.651 166.884C629.803 166.548 631.003 166.38 632.251 166.38ZM633.187 176.676C630.787 176.772 629.119 177.156 628.183 177.828C627.271 178.5 626.815 179.448 626.815 180.672C626.815 181.752 627.139 182.544 627.787 183.048C628.459 183.552 629.311 183.804 630.343 183.804C631.975 183.804 633.331 183.36 634.411 182.472C635.491 181.56 636.031 180.168 636.031 178.296V176.568L633.187 176.676ZM646.743 159.468C647.223 159.468 647.643 159.636 648.003 159.972C648.387 160.284 648.579 160.788 648.579 161.484C648.579 162.156 648.387 162.66 648.003 162.996C647.643 163.332 647.223 163.5 646.743 163.5C646.215 163.5 645.771 163.332 645.411 162.996C645.051 162.66 644.871 162.156 644.871 161.484C644.871 160.788 645.051 160.284 645.411 159.972C645.771 159.636 646.215 159.468 646.743 159.468ZM648.291 166.704V186H645.123V166.704H648.291ZM660.848 183.768C661.328 183.768 661.82 183.732 662.324 183.66C662.828 183.564 663.236 183.468 663.548 183.372V185.784C663.212 185.952 662.732 186.084 662.108 186.18C661.484 186.3 660.884 186.36 660.308 186.36C659.3 186.36 658.364 186.192 657.5 185.856C656.66 185.496 655.976 184.884 655.448 184.02C654.92 183.156 654.656 181.944 654.656 180.384V169.152H651.92V167.64L654.692 166.38L655.952 162.276H657.824V166.704H663.404V169.152H657.824V180.312C657.824 181.488 658.1 182.364 658.652 182.94C659.228 183.492 659.96 183.768 660.848 183.768ZM684.188 176.316C684.188 179.508 683.372 181.98 681.74 183.732C680.132 185.484 677.948 186.36 675.188 186.36C673.484 186.36 671.96 185.976 670.616 185.208C669.296 184.416 668.252 183.276 667.484 181.788C666.716 180.276 666.332 178.452 666.332 176.316C666.332 173.124 667.136 170.664 668.744 168.936C670.352 167.208 672.536 166.344 675.296 166.344C677.048 166.344 678.584 166.74 679.904 167.532C681.248 168.3 682.292 169.428 683.036 170.916C683.804 172.38 684.188 174.18 684.188 176.316ZM669.608 176.316C669.608 178.596 670.052 180.408 670.94 181.752C671.852 183.072 673.292 183.732 675.26 183.732C677.204 183.732 678.632 183.072 679.544 181.752C680.456 180.408 680.912 178.596 680.912 176.316C680.912 174.036 680.456 172.248 679.544 170.952C678.632 169.656 677.192 169.008 675.224 169.008C673.256 169.008 671.828 169.656 670.94 170.952C670.052 172.248 669.608 174.036 669.608 176.316ZM698.496 166.344C700.8 166.344 702.54 166.908 703.716 168.036C704.892 169.14 705.48 170.94 705.48 173.436V186H702.348V173.652C702.348 170.556 700.908 169.008 698.028 169.008C695.892 169.008 694.416 169.608 693.6 170.808C692.784 172.008 692.376 173.736 692.376 175.992V186H689.208V166.704H691.764L692.232 169.332H692.412C693.036 168.324 693.9 167.58 695.004 167.1C696.108 166.596 697.272 166.344 698.496 166.344Z" fill="white"/>
</svg>
